<?xml version="1.0" encoding="UTF-8"?>
<svg width="40px" height="40px" viewBox="0 0 40 40" xmlns="http://www.w3.org/2000/svg">
    <g id="tl" stroke="none" stroke-width="1" fill="none" fill-rule="evenodd">
        <path d="M13,34 L10,34 L10,18 L5,18 L4,15 L18,15 L19,18 L13,18 L13,34 Z M23,31 L31,31 L32,34 L20,34 L20,15 L23,15 L23,31 Z" id="TL" fill="#4A76A8"></path>
        <path d="M28.2421875,11.8515625 L27,11.8515625 L27,10.7578125 L28.53125,10.7578125 L29.390625,7.546875 L27,7.546875 L27,6.4609375 L29.6640625,6.4609375 L30.578125,3 L31.71875,3 L30.8046875,6.4609375 L33.015625,6.4609375 L33.96875,3 L35.109375,3 L34.171875,6.4609375 L35.484375,6.4609375 L35.484375,7.546875 L33.8671875,7.546875 L33.015625,10.7578125 L35.484375,10.7578125 L35.484375,11.8515625 L32.7109375,11.8515625 L31.8203125,15.125 L30.6640625,15.125 L31.5703125,11.8515625 L29.390625,11.8515625 L28.53125,15.125 L27.375,15.125 L28.2421875,11.8515625 Z M30.515625,7.546875 L29.6796875,10.7578125 L31.8671875,10.7578125 L32.75,7.546875 L30.515625,7.546875 Z" id="#" fill-opacity="0.6" fill="#4A76A8"></path>
    </g>
</svg>