<svg width="16" height="16" viewBox="0 0 16 16" fill="none" xmlns="http://www.w3.org/2000/svg">
    <path d="M12 2.5H4C3.17157 2.5 2.5 3.17157 2.5 4V12C2.5 12.8284 3.17157 13.5 4 13.5H12C12.8284 13.5 13.5 12.8284 13.5 12V4C13.5 3.17157 12.8284 2.5 12 2.5Z"
          fill="#EDF3FF" stroke="#3574F0"/>
    <path d="M3.51447 6.99751V6.36364H6.50098V6.99751H5.3877V10H4.62775V6.99751H3.51447ZM6.99281 10V6.36364H7.76163V9.36612H9.32058V10H6.99281ZM9.80842 10V9.44602L11.1028 8.24751C11.2129 8.14098 11.3052 8.0451 11.3798 7.95987C11.4556 7.87464 11.513 7.79119 11.552 7.70952C11.5911 7.62666 11.6106 7.53729 11.6106 7.44141C11.6106 7.33487 11.5864 7.24313 11.5378 7.16619C11.4893 7.08807 11.423 7.02829 11.339 6.98686C11.2549 6.94425 11.1596 6.92294 11.0531 6.92294C10.9418 6.92294 10.8448 6.94543 10.7619 6.99041C10.679 7.03539 10.6151 7.09991 10.5701 7.18395C10.5252 7.26799 10.5027 7.36802 10.5027 7.48402H9.7729C9.7729 7.24609 9.82676 7.03954 9.93448 6.86435C10.0422 6.68916 10.1931 6.55362 10.3873 6.45774C10.5814 6.36186 10.8051 6.31392 11.0584 6.31392C11.3188 6.31392 11.5455 6.36009 11.7385 6.45241C11.9326 6.54356 12.0835 6.67022 12.1912 6.83239C12.2989 6.99455 12.3528 7.1804 12.3528 7.38991C12.3528 7.52723 12.3256 7.66276 12.2711 7.79652C12.2179 7.93028 12.1226 8.07884 11.9853 8.24219C11.848 8.40436 11.6544 8.59908 11.4047 8.82635L10.8738 9.34659V9.37145H12.4007V10H9.80842Z"
          fill="#3574F0"/>
</svg>
